C:\Users\r0593348\3dpredictsim\Results\batch_windlass\Pog_s1_tmt_bCst_d00_k1000_WL10_ig24_act_TTC_GRF.mot
nRows=12
nColumns=19

name C:\Users\r0593348\3dpredictsim\Results\batch_windlass\Pog_s1_tmt_bCst_d00_k1000_WL10_ig24_act_TTC_GRF.mot
datacolumns 19
datarows 12
range 0.6275310798 0.7655879174
endheader
time 	ground_force_vx	ground_force_vy	ground_force_vz	ground_force_px	ground_force_py	ground_force_pz	1_ground_force_vx	1_ground_force_vy	1_ground_force_vz	1_ground_force_px	1_ground_force_py	1_ground_force_pz	ground_torque_x	ground_torque_y	ground_torque_z	1_ground_torque_x	1_ground_torque_y	1_ground_torque_z
        0.6275310798	      106.6096784951	      395.0777841791	       -3.5964462397	        0.4006692224	        0.0000000000	        0.0327142950	      -42.6001693815	       30.0425140915	       -6.0319991407	        0.9542395308	        0.0000000000	       -0.0625894187	        0.0000000000	        0.0000000000	        0.0000000000	        0.0000000000	        0.0000000000	        0.0000000000	
        0.6400817014	       65.5314750519	      282.2549263975	        8.8990277991	        0.4122484256	        0.0000000000	        0.0288134486	     -103.6954829947	       88.0209960191	      -17.5584912029	        0.9680669351	        0.0000000000	       -0.0611527501	        0.0000000000	        0.0000000000	        0.0000000000	        0.0000000000	        0.0000000000	        0.0000000000	
        0.6526323230	       47.1299608850	      225.2090012830	       17.9453069084	        0.4180351137	        0.0000000000	        0.0268206544	     -140.4275532485	      248.7770323372	      -20.3417645617	        0.9837174310	        0.0000000000	       -0.0614334805	        0.0000000000	        0.0000000000	        0.0000000000	        0.0000000000	        0.0000000000	        0.0000000000	
        0.6651829446	       43.1659803983	      179.9195098595	       18.6120388756	        0.4182088906	        0.0000000000	        0.0269255934	     -107.6556666225	      600.8057043537	       19.0467243280	        0.9981402825	        0.0000000000	       -0.0626740273	        0.0000000000	        0.0000000000	        0.0000000000	        0.0000000000	        0.0000000000	        0.0000000000	
        0.6777335662	       29.6145940860	      118.8975419843	       16.9189836367	        0.4181966306	        0.0000000000	        0.0270979113	     -157.9866240706	      874.4375060692	       31.1472689129	        1.0103901746	        0.0000000000	       -0.0625589613	        0.0000000000	        0.0000000000	        0.0000000000	        0.0000000000	        0.0000000000	        0.0000000000	
        0.6902841878	        3.1089873541	       42.9684327978	        8.8389819198	        0.4166350910	        0.0000000000	        0.0273205738	     -200.6755567173	     1017.7493566425	       30.7301883841	        1.0242360985	        0.0000000000	       -0.0605320768	        0.0000000000	        0.0000000000	        0.0000000000	        0.0000000000	        0.0000000000	        0.0000000000	
        0.7028348094	        1.0754879783	       -1.0461018165	        0.0439246670	        0.0000000000	        0.0000000000	        0.0000000000	     -191.5093692526	      977.3992260925	       23.4289427238	        1.0336335371	        0.0000000000	       -0.0587091261	        0.0000000000	        0.0000000000	        0.0000000000	        0.0000000000	        0.0000000000	        0.0000000000	
        0.7153854310	        0.0621749372	       -0.0520347284	        0.0054342814	        0.0000000000	        0.0000000000	        0.0000000000	     -156.1377899165	      854.3399100298	       19.6704287873	        1.0373752702	        0.0000000000	       -0.0578302379	        0.0000000000	        0.0000000000	        0.0000000000	        0.0000000000	        0.0000000000	        0.0000000000	
        0.7279360526	       -1.0689083086	        0.7890224374	       -0.0982113948	        0.0000000000	        0.0000000000	        0.0000000000	     -133.0162398237	      771.8502026961	       16.0506598846	        1.0405778023	        0.0000000000	       -0.0573616495	        0.0000000000	        0.0000000000	        0.0000000000	        0.0000000000	        0.0000000000	        0.0000000000	
        0.7404866742	        0.1031945856	       -0.0701479696	        0.0085110938	        0.0000000000	        0.0000000000	        0.0000000000	     -114.3550311004	      728.9848550841	       15.4492091155	        1.0437733749	        0.0000000000	       -0.0570354804	        0.0000000000	        0.0000000000	        0.0000000000	        0.0000000000	        0.0000000000	        0.0000000000	
        0.7530372958	        0.0540293211	       -0.0346104171	        0.0035002247	        0.0000000000	        0.0000000000	        0.0000000000	      -99.0829799335	      698.6736479265	       15.1071334798	        1.0469613656	        0.0000000000	       -0.0567842069	        0.0000000000	        0.0000000000	        0.0000000000	        0.0000000000	        0.0000000000	        0.0000000000	
        0.7655879174	        0.0083081241	       -0.0051107875	        0.0004223254	        0.0000000000	        0.0000000000	        0.0000000000	      -84.6380910538	      675.3779341538	       15.3106380854	        1.0499780420	        0.0000000000	       -0.0566155183	        0.0000000000	        0.0000000000	        0.0000000000	        0.0000000000	        0.0000000000	        0.0000000000	
